<?xml version="1.0" standalone="no"?>
<!DOCTYPE svg PUBLIC "-//W3C//DTD SVG 20010904//EN"
 "http://www.w3.org/TR/2001/REC-SVG-20010904/DTD/svg10.dtd">
<svg version="1.0" xmlns="http://www.w3.org/2000/svg"
 width="200.000000pt" height="200.000000pt" viewBox="0 0 200.000000 200.000000"
 preserveAspectRatio="xMidYMid meet">

<g transform="translate(0.000000,200.000000) scale(0.100000,-0.100000)"
fill="#000000" stroke="none">
<path d="M0 1000 l0 -1000 1000 0 1000 0 0 1000 0 1000 -1000 0 -1000 0 0
-1000z m776 712 c97 -50 150 -157 124 -252 -30 -111 -120 -180 -234 -180 -79
1 -131 24 -183 84 -112 128 -54 311 117 367 40 13 133 3 176 -19z m-250 -451
c40 -38 186 -44 263 -11 l50 22 40 -31 c69 -55 127 -127 141 -175 16 -58 2
-100 -50 -151 l-40 -39 0 -222 c0 -122 -3 -229 -6 -238 -5 -13 -24 -16 -104
-16 -68 0 -101 4 -107 13 -4 6 -10 70 -13 142 l-5 130 -25 0 -25 0 -5 -140 -5
-140 -115 0 -115 0 -3 234 -2 233 -40 45 c-78 89 -65 160 50 275 75 76 96 88
116 69z m911 -7 c98 -47 113 -195 27 -263 -66 -52 -161 -46 -220 13 -101 101
-33 266 109 266 27 0 65 -7 84 -16z m-147 -319 c54 -19 88 -19 145 1 45 15 46
15 78 -11 92 -76 113 -155 57 -218 l-29 -34 -3 -159 -3 -159 -70 0 -70 0 -5
95 c-5 87 -7 95 -25 95 -18 0 -20 -8 -23 -98 l-3 -98 -77 3 -77 3 -3 160 c-2
138 -5 162 -21 180 -43 47 -52 95 -27 144 13 23 98 111 110 111 2 0 23 -7 46
-15z m-701 -602 c11 -10 22 -29 23 -42 4 -31 -36 -44 -104 -35 -40 5 -48 9
-48 27 0 55 83 87 129 50z m271 -10 c11 -15 19 -34 18 -42 -7 -37 -149 -36
-156 2 -2 9 8 28 22 42 35 35 87 34 116 -2z m456 -29 c22 -33 8 -46 -47 -42
-49 3 -62 24 -34 52 25 24 62 20 81 -10z m180 0 c22 -33 7 -45 -51 -42 -30 2
-41 8 -44 22 -8 46 68 62 95 20z"/>
<path d="M590 1699 c-98 -39 -151 -141 -125 -241 38 -148 239 -198 354 -88 32
31 61 97 61 140 0 73 -58 153 -132 184 -42 18 -120 20 -158 5z"/>
<path d="M440 1183 c-70 -65 -105 -129 -96 -177 4 -19 24 -54 46 -79 l40 -45
0 -226 0 -226 74 0 c41 0 81 -3 90 -6 14 -5 16 9 16 123 0 144 10 173 58 173
59 0 72 -31 72 -174 l0 -114 78 -4 c42 -2 78 -3 80 -2 2 1 3 104 2 228 l-1
226 46 49 c77 83 69 147 -32 242 -77 73 -78 73 -108 53 -43 -28 -175 -31 -248
-6 l-59 19 -58 -54z"/>
<path d="M1454 1201 c19 -20 32 -47 37 -73 6 -40 7 -41 8 -9 1 37 -30 95 -57
106 -10 4 -6 -5 12 -24z"/>
<path d="M1517 880 c17 -19 39 -48 47 -65 11 -21 16 -24 16 -12 0 10 -21 40
-47 66 -27 26 -34 31 -16 11z"/>
<path d="M1512 640 c0 -19 2 -27 5 -17 2 9 2 25 0 35 -3 9 -5 1 -5 -18z"/>
<path d="M1200 475 l0 -105 60 0 60 0 0 89 c0 82 2 91 22 105 21 15 17 16 -60
16 l-82 0 0 -105z"/>
<path d="M1388 564 c20 -14 22 -23 22 -105 l0 -89 55 0 55 0 0 105 0 105 -77
0 c-73 0 -76 -1 -55 -16z"/>
<path d="M501 306 c-10 -11 -4 -15 31 -18 51 -6 63 -1 47 18 -15 18 -63 18
-78 0z"/>
<path d="M765 309 c-9 -14 -7 -15 43 -23 43 -6 52 0 30 22 -15 15 -64 16 -73
1z"/>
<path d="M1256 292 c-3 -5 6 -12 20 -15 15 -3 23 0 21 7 -5 14 -33 20 -41 8z"/>
<path d="M1431 291 c-9 -6 -4 -10 18 -13 20 -3 30 -1 28 6 -5 14 -29 18 -46 7z"/>
</g>
</svg>
